<?xml version="1.0" standalone="no"?>
<!DOCTYPE svg PUBLIC "-//W3C//DTD SVG 20010904//EN"
 "http://www.w3.org/TR/2001/REC-SVG-20010904/DTD/svg10.dtd">
<svg version="1.0" xmlns="http://www.w3.org/2000/svg"
 width="1297.000000pt" height="847.000000pt" viewBox="0 0 1297.000000 847.000000"
 preserveAspectRatio="xMidYMid meet">
<metadata>
Created by potrace 1.16, written by Peter Selinger 2001-2019
</metadata>
<g transform="translate(0.000000,847.000000) scale(0.100000,-0.100000)"
fill="#000000" stroke="none">
<path d="M0 4235 c0 -3758 2 -4235 15 -4235 13 0 15 208 16 1808 0 994 0 2195
-1 2668 -1 811 -1 862 16 868 13 5 15 9 6 18 -14 14 -15 64 -2 93 7 16 9 11 9
-21 1 -23 7 -46 14 -52 20 -17 220 -4 230 14 10 18 28 18 21 0 -4 -10 2 -14
19 -12 14 0 23 4 21 8 -9 14 9 38 28 38 14 0 18 5 14 16 -3 9 -6 18 -6 20 0 2
-11 4 -24 4 -14 0 -28 5 -31 11 -4 6 -14 8 -22 5 -8 -3 -23 -1 -34 4 -20 11
-94 19 -171 19 -37 0 -48 4 -48 15 0 9 -9 21 -20 28 -18 12 -20 24 -20 120 0
119 6 129 64 121 22 -3 34 1 45 16 9 11 31 30 50 43 32 21 35 27 35 77 1 37 6
56 15 59 8 3 31 20 52 39 31 28 39 43 39 69 0 19 5 34 10 34 6 0 10 -20 10
-44 0 -39 -4 -46 -38 -70 -21 -14 -43 -26 -49 -26 -17 0 -26 -37 -19 -75 4
-18 2 -44 -3 -57 -6 -17 -6 -25 2 -25 7 0 22 -3 34 -7 13 -4 23 -4 23 1 0 4
11 8 25 8 14 0 25 -3 25 -8 0 -8 39 0 80 16 14 5 44 9 68 9 23 0 42 4 42 10 0
12 -20 33 -40 41 -8 4 2 4 24 0 36 -5 38 -5 27 15 -13 24 5 47 47 63 20 8 22
12 12 24 -8 10 -10 29 -6 56 4 24 2 55 -6 75 -9 26 -9 37 0 46 7 7 12 23 13
37 l0 26 10 -24 c5 -13 7 -33 3 -44 -6 -18 7 -53 29 -84 14 -19 41 0 77 52 17
25 37 45 45 45 7 0 32 18 55 40 23 22 38 40 34 40 -4 0 1 9 12 21 10 11 19 28
19 37 3 43 18 83 31 78 7 -3 16 -1 19 4 3 4 1 10 -5 12 -6 2 -8 26 -4 65 4 35
11 60 16 57 5 -3 7 -22 4 -43 -7 -44 8 -77 18 -38 3 13 15 27 26 30 11 3 20
14 20 24 0 10 9 36 20 58 24 47 24 49 5 42 -8 -4 -17 -2 -21 4 -10 16 17 39
46 39 15 0 39 9 53 20 14 11 32 20 40 20 29 0 31 23 5 44 -21 17 -24 25 -17
44 8 22 33 28 29 8 -2 -13 22 -26 48 -26 12 0 22 -4 22 -10 0 -21 18 -9 24 15
9 35 22 24 24 -20 2 -47 9 -57 35 -49 27 8 97 74 97 91 0 16 17 26 31 17 8 -4
7 -9 -2 -15 -11 -7 -11 -9 3 -9 9 0 21 13 27 30 9 29 25 39 34 23 2 -5 2 -2 1
5 -4 14 62 122 74 122 5 0 13 -5 18 -10 7 -7 20 -6 40 4 16 9 48 16 71 18 33
2 43 7 47 24 6 23 58 50 75 39 6 -3 11 1 11 10 0 27 25 11 31 -21 l5 -29 5 32
c3 18 2 30 -3 27 -4 -3 -8 0 -8 5 0 6 6 11 13 11 12 0 30 62 154 510 78 285
233 863 233 872 0 5 -515 8 -1145 8 l-1145 0 0 -4235z m780 4085 c0 -5 -5 -10
-11 -10 -5 0 -7 5 -4 10 3 6 8 10 11 10 2 0 4 -4 4 -10z m-224 -85 c-3 -9 7
-11 40 -7 25 2 55 0 67 -6 12 -6 35 -13 51 -14 41 -4 46 -27 6 -26 -18 1 -39
-7 -53 -20 -13 -12 -33 -22 -45 -22 -12 0 -22 -4 -22 -10 0 -15 -30 -12 -31 3
0 10 -2 10 -6 0 -7 -20 -20 -16 -55 17 -17 17 -39 30 -48 30 -10 0 -23 7 -30
16 -11 13 -10 16 8 21 12 3 22 9 22 13 0 13 51 27 78 22 13 -3 21 -10 18 -17z
m129 5 c3 -5 -1 -10 -9 -10 -9 0 -16 5 -16 10 0 6 4 10 9 10 6 0 13 -4 16 -10z
m-495 -220 c0 -5 -4 -10 -9 -10 -6 0 -13 5 -16 10 -3 6 1 10 9 10 9 0 16 -4
16 -10z m1009 -54 c25 -26 64 -126 86 -216 7 -30 18 -70 24 -89 8 -25 7 -43
-4 -75 -24 -69 -20 -112 16 -147 27 -26 29 -32 17 -47 -23 -30 -50 -52 -58
-47 -4 3 -10 -3 -12 -13 -3 -9 -18 -24 -34 -32 -16 -8 -33 -19 -37 -25 -5 -6
-7 -4 -4 5 2 8 -6 35 -19 60 -12 25 -25 65 -29 90 -4 25 -10 49 -13 55 -3 5
-5 28 -3 50 1 28 -3 46 -13 54 -22 18 -20 32 10 76 14 21 23 43 21 49 -3 6 -6
16 -7 21 -2 6 -12 16 -22 24 -11 7 -16 16 -12 20 26 18 34 40 25 62 -20 51
-24 64 -21 74 1 6 3 18 4 28 1 15 35 42 57 46 3 1 16 -10 28 -23z m-1019 0 c0
-14 -24 -66 -30 -66 -18 0 -20 21 -4 45 14 21 34 34 34 21z m-46 -173 c-4 -16
-10 -35 -15 -43 -13 -26 -23 17 -11 46 16 33 34 31 26 -3z m-64 -244 c-11 -43
-29 -74 -31 -52 -8 86 -6 114 9 122 27 15 35 -13 22 -70z m1206 -356 c-3 -8
-2 -12 3 -9 13 8 46 -33 35 -44 -5 -5 -25 2 -51 19 -38 25 -40 30 -26 44 18
18 47 11 39 -10z m-49 -67 l22 -43 -40 1 c-41 1 -50 14 -24 36 11 9 13 16 5
24 -14 14 -13 26 3 26 6 0 22 -20 34 -44z m170 -184 c26 -30 29 -56 11 -76
-20 -21 -50 2 -34 26 9 16 8 22 -6 32 -24 18 -41 63 -25 69 7 3 17 -2 22 -10
6 -8 20 -27 32 -41z m-437 -222 c0 -5 -5 -10 -11 -10 -5 0 -7 5 -4 10 3 6 8
10 11 10 2 0 4 -4 4 -10z m-520 -831 c0 -11 -27 -12 -34 0 -3 4 -3 11 0 14 8
8 34 -3 34 -14z"/>
<path d="M3617 8445 c-16 -23 -17 -26 -2 -49 28 -42 99 -70 200 -79 17 -2 20
-9 20 -46 1 -38 5 -48 38 -75 32 -26 44 -31 78 -28 23 3 52 -2 65 -9 20 -10
27 -10 37 0 9 10 8 15 -5 25 -24 18 -22 31 7 50 17 11 25 13 25 4 0 -6 6 -4
13 6 11 15 15 15 24 4 6 -7 14 -23 17 -36 6 -19 3 -23 -22 -28 l-29 -6 19 -40
c11 -24 18 -55 16 -76 -3 -33 0 -37 23 -40 29 -3 20 -24 101 241 11 37 29 78
39 91 11 14 19 31 19 40 0 13 14 16 90 16 50 0 90 -4 90 -8 0 -5 18 -8 40 -8
36 1 40 -2 40 -23 0 -17 4 -22 16 -17 8 3 13 2 10 -3 -8 -12 24 -37 66 -50 21
-7 40 -17 43 -22 4 -5 24 -9 46 -9 21 0 39 -4 39 -10 0 -5 9 -10 20 -10 11 0
27 -12 37 -26 16 -25 17 -25 30 -8 10 13 13 14 13 3 0 -13 39 -31 98 -46 12
-3 22 -9 22 -14 0 -5 9 -9 20 -9 11 0 20 -4 20 -9 0 -4 11 -7 25 -6 15 2 25
-2 25 -10 0 -15 38 -27 46 -14 3 6 14 7 25 4 16 -5 19 -1 19 28 0 18 3 37 6
40 11 11 44 -40 50 -78 6 -39 32 -77 46 -69 14 9 37 -16 31 -32 -3 -8 1 -14 8
-14 8 0 33 -22 57 -50 24 -27 54 -53 68 -56 25 -6 58 12 48 27 -3 5 12 17 33
26 21 10 44 26 51 36 24 32 33 19 27 -37 -3 -32 -1 -57 4 -61 6 -3 8 -12 5
-20 -6 -14 33 -41 44 -31 3 3 -1 6 -9 6 -11 1 -10 3 2 13 17 13 77 216 81 273
1 16 8 38 15 49 19 31 45 154 37 178 -6 19 -9 35 -13 70 -1 4 -7 7 -14 7 -8 0
-24 11 -37 25 l-23 25 -1031 0 -1031 -1 -18 -24z"/>
<path d="M5800 8433 c1 -39 10 -33 24 15 6 16 3 22 -8 22 -12 0 -16 -10 -16
-37z"/>
<path d="M7826 8418 c-8 -29 -45 -165 -81 -303 -37 -137 -88 -331 -115 -430
-53 -197 -165 -617 -240 -900 -27 -99 -64 -242 -85 -318 -20 -76 -34 -145 -31
-153 3 -7 1 -16 -4 -19 -10 -6 -24 -52 -84 -286 -26 -97 -46 -184 -45 -195 0
-10 3 -14 5 -8 3 6 27 9 64 6 34 -3 60 0 60 5 0 10 96 -6 118 -20 7 -5 12 -4
12 2 0 6 5 11 11 11 5 0 8 -3 6 -7 -3 -5 5 -8 16 -9 12 0 40 -4 62 -8 40 -7
41 -6 58 29 15 31 19 34 37 25 12 -6 28 -9 38 -6 9 3 30 -1 46 -9 15 -8 37
-15 47 -15 11 0 19 -7 19 -15 0 -36 39 -44 285 -55 249 -12 450 -6 474 14 9 7
64 10 167 8 142 -3 153 -2 163 16 6 11 23 25 39 31 16 7 34 22 40 34 6 12 11
16 11 8 1 -7 -15 -28 -34 -46 -28 -27 -32 -35 -21 -44 20 -17 44 -3 67 38 l20
36 -7 -35 c-3 -19 -7 -39 -8 -43 -2 -17 227 -34 427 -31 154 2 157 1 156 -20
0 -11 -6 -37 -13 -56 -12 -32 -17 -36 -62 -42 -27 -4 -116 -9 -199 -12 -82 -2
-181 -10 -220 -16 -38 -7 -75 -12 -82 -13 -7 0 -17 -13 -24 -29 -6 -15 -19
-28 -29 -28 -32 0 -30 -13 11 -51 32 -29 36 -36 19 -32 -13 3 -25 14 -27 25
-3 10 -11 18 -18 18 -7 0 -16 7 -19 16 -7 19 10 44 29 44 11 0 25 20 25 36 0
2 -30 4 -67 5 -38 0 -86 4 -108 8 -26 5 -49 3 -65 -4 -38 -19 -98 -27 -105
-15 -3 5 -16 9 -28 9 -12 0 -50 2 -83 6 -47 5 -69 3 -92 -9 -39 -20 -67 -20
-29 0 15 8 27 17 27 20 0 9 -480 -3 -600 -15 -189 -18 -214 -22 -275 -36 -33
-8 -80 -16 -105 -19 -24 -2 -46 -9 -48 -15 -2 -6 -8 -11 -13 -11 -6 0 -7 5 -4
10 3 6 -1 10 -9 10 -9 0 -16 -4 -16 -9 0 -4 -43 -7 -96 -6 -67 1 -100 -2 -109
-11 -8 -9 -16 -9 -23 -2 -7 7 -15 -6 -25 -39 -30 -92 -78 -298 -73 -316 2 -9
1 -15 -3 -12 -9 5 -61 -159 -61 -191 0 -10 -7 -39 -16 -64 -9 -25 -16 -63 -16
-85 1 -29 -2 -35 -9 -25 -7 11 -8 5 -4 -20 4 -23 3 -30 -3 -22 -7 11 -10 9
-15 -7 -3 -12 1 -22 10 -25 11 -5 12 -8 1 -20 -7 -8 -17 -11 -22 -8 -5 3 -7
-2 -3 -10 3 -9 1 -20 -4 -25 -5 -5 -29 -86 -53 -179 -24 -93 -52 -195 -62
-227 -15 -50 -15 -60 -3 -68 13 -8 6 -13 -13 -10 -4 0 -10 -11 -13 -27 -20
-92 -57 -193 -77 -206 -12 -9 -24 -13 -27 -10 -3 3 1 9 9 14 24 15 6 11 -28
-6 -18 -8 -32 -21 -32 -29 0 -7 -7 -18 -15 -25 -8 -7 -15 -18 -15 -24 0 -7 3
-7 8 -1 4 6 14 11 22 13 10 2 6 -6 -9 -22 -28 -30 -33 -32 -25 -12 10 26 -18
30 -37 5 -10 -13 -19 -18 -19 -11 0 16 -27 16 -33 0 -3 -10 -7 -10 -20 1 -11
9 -17 10 -17 2 0 -6 6 -11 13 -11 7 -1 5 -6 -5 -14 -21 -16 -24 -28 -4 -20 9
3 15 -4 18 -20 5 -22 3 -24 -14 -15 -18 9 -18 8 -8 -10 6 -12 7 -21 3 -21 -4
0 0 -5 9 -11 27 -15 88 37 88 74 0 15 4 27 9 27 15 0 23 -18 11 -23 -6 -3 -5
-4 2 -3 7 2 13 8 13 14 0 16 47 72 56 67 4 -3 18 4 32 15 14 11 38 20 54 20
23 0 31 -7 47 -40 16 -33 22 -38 37 -29 11 5 19 16 19 24 0 10 11 15 35 15 46
0 135 20 135 30 0 5 9 19 20 32 10 12 31 38 46 56 14 17 30 32 35 32 16 0 69
63 75 89 3 14 8 33 11 41 5 13 33 131 49 210 3 14 21 75 39 135 18 61 47 166
65 235 17 69 40 147 51 174 10 27 19 57 19 67 0 52 24 62 71 28 33 -23 35 -31
14 -52 -12 -13 -12 -17 5 -32 11 -10 20 -25 20 -34 0 -11 10 -17 27 -19 28 -2
69 -32 45 -32 -7 0 -12 -4 -12 -10 0 -17 28 -11 33 8 4 15 5 15 6 -2 0 -10 9
-25 19 -32 16 -12 15 -13 -5 -14 -12 0 -23 4 -25 9 -1 4 -25 11 -52 15 -34 6
-46 4 -41 -4 4 -6 1 -17 -5 -25 -7 -8 -9 -15 -4 -15 5 0 2 -5 -6 -10 -21 -14
-48 -12 -53 3 -2 6 -2 2 0 -10 2 -13 -1 -23 -6 -23 -5 0 -8 -11 -7 -25 0 -14
4 -25 9 -25 4 0 7 -13 7 -28 0 -16 9 -40 21 -53 l20 -23 -25 -19 c-15 -10 -23
-24 -19 -32 3 -8 0 -15 -5 -15 -6 0 -14 9 -17 20 -4 11 -10 18 -15 15 -9 -5
-8 -20 5 -48 5 -11 2 -24 -9 -36 -18 -20 -5 -41 25 -41 22 0 44 -26 29 -35 -5
-3 -10 -13 -10 -22 0 -9 -8 -25 -17 -36 -16 -16 -16 -20 -3 -30 15 -12 19 -44
8 -63 -4 -6 7 -26 25 -45 17 -19 32 -37 33 -41 1 -5 2 -10 3 -13 0 -3 9 -1 19
4 20 11 47 -1 47 -21 0 -7 10 -17 23 -23 12 -5 22 -13 22 -17 0 -5 11 -8 25
-8 14 0 28 -7 31 -15 4 -8 14 -15 24 -15 11 0 22 -4 25 -10 3 -5 17 -10 31
-10 14 0 27 -7 31 -15 8 -23 -5 -31 -28 -17 -18 12 -20 11 -17 -6 2 -10 -3
-26 -11 -35 -16 -20 -1 -23 18 -4 10 10 11 6 6 -18 -7 -26 -6 -28 6 -14 9 11
36 19 74 23 33 3 65 12 71 19 16 16 35 87 23 87 -5 0 -9 -9 -9 -19 0 -22 -20
-40 -21 -19 0 7 -4 4 -9 -7 -5 -11 -9 -15 -9 -10 -1 6 -18 9 -41 7 -22 -2 -40
0 -40 6 0 16 32 37 52 34 16 -3 19 1 13 17 -4 14 0 23 15 31 11 6 20 17 20 24
0 8 9 16 19 19 23 6 61 -18 61 -39 0 -20 -17 -18 -24 4 -3 10 -4 6 -3 -8 2
-30 30 -34 36 -5 2 11 14 30 27 42 13 12 24 31 24 42 0 11 4 22 9 25 4 3 11
24 15 46 3 22 13 43 21 46 8 4 16 18 16 33 2 24 2 24 6 3 3 -13 -2 -31 -10
-40 -8 -9 -17 -39 -21 -67 -4 -27 -8 -60 -10 -73 -3 -12 0 -20 5 -16 5 3 9 -3
9 -13 0 -14 2 -15 9 -4 15 24 31 1 31 -44 0 -39 4 -47 42 -77 23 -18 39 -27
35 -20 -5 7 -3 12 3 12 16 0 25 -31 11 -39 -8 -5 -3 -15 14 -31 19 -17 23 -30
19 -49 -17 -77 -18 -77 30 -125 48 -50 51 -67 23 -141 -15 -38 -10 -64 14 -91
10 -11 19 -28 19 -38 0 -9 5 -27 11 -38 9 -17 8 -28 -6 -55 -14 -26 -16 -38
-8 -56 24 -49 43 -95 43 -103 0 -4 7 -15 16 -25 8 -9 17 -34 19 -55 2 -22 11
-54 21 -73 9 -19 18 -52 20 -74 2 -22 16 -59 34 -85 16 -25 30 -53 30 -62 0
-25 -29 -92 -50 -115 -20 -23 -38 -74 -44 -124 -4 -39 18 -101 37 -101 9 0 9
-2 1 -8 -9 -5 -8 -16 2 -42 17 -41 91 -81 106 -58 4 7 6 19 3 26 -3 7 0 10 5
7 5 -3 7 -19 4 -34 -8 -39 12 -48 31 -14 l15 28 -5 -35 c-6 -39 0 -52 32 -69
42 -22 50 -14 68 62 38 159 131 490 156 555 7 19 12 21 29 12 11 -6 20 -7 20
-1 0 5 12 12 28 16 l27 7 -35 15 c-19 9 -38 15 -42 15 -5 -1 -8 7 -8 18 0 17
6 19 48 18 26 -1 103 7 172 16 162 23 340 12 340 -21 0 -7 7 -16 15 -19 8 -4
15 -11 15 -16 0 -6 -7 -8 -15 -4 -19 7 -70 -15 -55 -24 6 -3 42 -5 80 -4 46 2
70 -1 70 -8 0 -6 2 -9 5 -6 10 10 -7 58 -20 58 -7 0 -15 9 -18 20 -3 11 -13
20 -22 20 -9 0 -13 4 -10 10 4 6 19 4 41 -5 26 -11 41 -12 55 -4 13 7 32 6 62
-2 25 -7 70 -9 112 -5 40 4 91 2 120 -5 28 -6 91 -11 142 -11 79 0 95 3 114
21 27 25 51 30 193 39 78 5 111 11 114 21 3 9 -2 11 -17 6 -14 -4 -33 1 -55
14 -28 17 -44 20 -97 16 -88 -8 -103 -8 -191 2 -86 9 -119 27 -74 39 15 4 52
4 81 1 29 -3 57 -1 62 4 6 6 26 10 44 11 47 0 69 7 69 22 0 19 78 38 103 25
10 -6 16 -17 13 -25 -4 -10 2 -14 19 -14 16 0 25 6 25 15 0 8 7 15 15 15 8 0
15 4 15 9 0 5 -24 12 -54 15 -37 5 -56 13 -61 24 -6 15 -8 15 -22 -3 -11 -14
-17 -16 -20 -7 -7 17 -42 15 -49 -3 -4 -8 -10 -13 -14 -10 -5 3 -12 0 -15 -5
-4 -7 -19 -8 -38 -4 -24 5 -33 2 -48 -17 -13 -17 -20 -20 -31 -12 -7 6 -33 13
-58 17 -37 5 -48 12 -63 38 -17 29 -17 33 -3 44 9 6 16 14 16 17 0 12 -32 16
-55 7 -14 -6 -43 -6 -69 -1 -29 5 -49 4 -55 -2 -19 -19 -12 -24 35 -25 112 -1
53 -47 -72 -55 -38 -3 -87 -12 -109 -21 -48 -18 -136 -21 -153 -4 -15 15 -76
12 -111 -7 -15 -7 -33 -10 -40 -6 -6 4 -34 7 -61 5 -55 -3 -64 8 -54 62 4 20
2 34 -4 34 -5 0 -12 9 -15 20 -7 26 -41 26 -67 0 -16 -16 -18 -25 -10 -40 6
-11 15 -20 20 -20 25 0 7 -28 -21 -34 -61 -12 -108 -7 -129 14 -11 11 -31 20
-44 20 -32 0 -39 12 -21 36 8 10 15 31 15 46 0 15 5 30 11 34 17 10 105 7 125
-4 15 -8 23 -7 38 6 13 12 36 17 82 17 37 0 68 5 75 13 16 15 45 16 54 2 5 -8
11 -7 21 1 23 19 16 37 -18 44 -18 4 -41 14 -50 23 -10 8 -18 12 -18 7 0 -4
-7 -2 -15 5 -8 6 -19 9 -25 5 -5 -3 -18 1 -27 11 -19 19 -95 15 -134 -8 -17
-10 -23 -10 -26 0 -3 6 -11 12 -18 12 -8 0 -17 5 -20 11 -9 13 14 99 31 119 7
8 12 20 11 25 -4 19 53 17 78 -3 25 -20 26 -20 65 -1 59 29 127 25 181 -10 64
-41 106 -88 91 -103 -8 -8 -15 -8 -24 0 -7 5 -30 13 -51 17 -32 6 -41 4 -63
-18 -14 -14 -21 -28 -16 -31 5 -3 98 -4 206 -2 108 2 199 0 202 -5 3 -5 16 -9
29 -9 24 0 41 -25 25 -35 -18 -11 -10 -43 15 -59 15 -10 46 -16 84 -16 38 0
77 -7 108 -21 l48 -21 -24 -19 c-13 -11 -21 -22 -17 -26 3 -3 14 1 23 10 10 8
31 19 46 23 16 3 31 13 34 20 7 20 69 18 77 -2 4 -10 14 -14 25 -11 10 2 26 0
37 -6 26 -15 126 -9 145 9 20 18 43 18 59 -1 7 -8 23 -15 35 -15 34 0 55 -10
55 -26 0 -8 -8 -14 -19 -14 -10 0 -24 -6 -30 -14 -10 -12 -8 -17 8 -25 26 -14
31 -14 31 4 0 22 29 18 38 -4 4 -11 10 -20 15 -20 4 -1 10 -1 15 -2 4 0 -9 -6
-28 -12 -32 -11 -35 -16 -34 -49 1 -36 1 -36 -49 -42 -45 -6 -49 -9 -35 -22
21 -21 153 -40 172 -25 8 7 25 9 40 5 14 -3 34 -3 43 1 10 4 47 8 83 9 58 1
65 3 65 21 1 11 7 32 14 47 18 36 8 62 -23 54 -12 -3 -26 -3 -30 1 -4 4 12 12
36 18 33 8 44 16 50 35 45 161 62 225 92 340 19 74 38 143 41 153 4 10 4 17
-1 16 -19 -3 -34 1 -34 11 0 6 11 10 25 10 20 0 26 7 36 43 6 23 24 84 41 135
24 78 34 95 55 103 26 10 94 13 123 6 109 -27 154 -64 163 -137 3 -24 11 -46
17 -48 6 -2 32 -24 58 -49 71 -68 84 -78 130 -107 23 -14 42 -31 42 -37 0 -6
13 -23 28 -39 33 -32 67 -121 77 -197 4 -29 13 -57 20 -63 7 -6 17 -29 20 -52
6 -33 13 -42 39 -53 20 -9 40 -28 52 -52 10 -21 27 -45 37 -53 25 -22 45 -116
31 -147 -12 -29 -13 -56 -1 -44 6 6 28 11 48 11 56 0 73 33 66 127 -5 66 -4
73 13 73 10 0 20 7 24 15 3 8 16 15 30 15 28 0 36 -21 36 -97 0 -45 4 -55 26
-69 14 -9 23 -22 21 -29 -7 -17 38 -104 62 -121 18 -13 19 -18 9 -40 -10 -22
-9 -28 5 -39 22 -16 22 -31 -1 -37 -10 -3 -32 -26 -48 -51 -16 -26 -35 -46
-41 -47 -24 0 -44 -47 -44 -104 -1 -39 -7 -63 -20 -80 -10 -13 -19 -31 -19
-40 0 -19 -32 -21 -59 -4 -32 20 -51 3 -51 -44 -1 -37 -2 -41 -13 -26 -18 22
-106 22 -114 -1 -4 -9 -12 -23 -20 -32 -12 -14 -12 -17 2 -22 8 -4 15 -13 15
-22 0 -8 4 -15 10 -15 5 0 12 -11 16 -23 3 -14 25 -36 50 -52 24 -15 44 -29
44 -30 0 -19 -33 -69 -63 -95 -37 -32 -38 -35 -32 -79 4 -25 10 -50 15 -56 4
-5 10 -25 14 -44 5 -30 2 -39 -25 -64 -22 -20 -35 -25 -42 -18 -17 17 -104 14
-111 -4 -13 -34 17 -58 41 -34 16 16 58 7 58 -12 0 -9 7 -24 15 -35 14 -16 13
-17 -3 -11 -11 4 -20 1 -23 -8 -4 -8 -19 -15 -34 -15 -38 0 -83 -18 -75 -30 3
-5 -6 -12 -20 -16 -14 -3 -25 -12 -25 -19 0 -23 -39 -47 -85 -52 -25 -3 -45
-11 -45 -17 0 -6 -4 -5 -9 3 -5 8 -7 20 -5 26 3 7 -4 15 -14 17 -14 4 -28 -4
-47 -26 -15 -17 -37 -33 -49 -36 -15 -4 -22 -16 -26 -40 -3 -22 -11 -35 -20
-35 -12 0 -14 10 -12 43 3 32 0 42 -11 42 -11 0 -15 -9 -15 -28 1 -15 -4 -37
-10 -48 -6 -11 -14 -48 -18 -82 -6 -57 -5 -65 17 -88 29 -31 16 -47 -43 -48
-39 -1 -44 -4 -53 -31 -13 -40 -35 -69 -62 -84 -16 -8 -23 -21 -23 -42 0 -24
-7 -32 -35 -46 -19 -9 -35 -20 -35 -24 0 -11 -100 -40 -111 -33 -5 3 -9 22 -9
44 0 60 -46 65 -76 9 -11 -22 -22 -29 -45 -29 -16 0 -44 -7 -60 -16 -17 -8
-38 -14 -47 -13 -9 0 -27 -2 -39 -6 -19 -6 -22 -13 -18 -36 4 -21 1 -29 -9
-29 -20 0 -36 23 -27 39 5 8 7 30 4 51 -6 44 20 93 46 85 43 -13 52 39 14 81
-16 16 -30 19 -105 16 -76 -2 -88 -5 -93 -22 -8 -25 1 -41 20 -33 23 8 18 -18
-9 -51 -19 -24 -22 -38 -18 -75 4 -39 3 -43 -12 -38 -10 4 -20 7 -22 7 -2 0
-4 11 -4 25 0 15 -7 28 -17 32 -10 4 -23 13 -29 21 -6 8 -16 12 -22 8 -6 -3
-14 -1 -18 5 -5 8 -9 8 -14 -1 -4 -7 -8 6 -8 29 0 22 -5 48 -10 58 -16 28 -45
-43 -102 -257 -29 -107 -72 -267 -96 -355 -24 -88 -68 -248 -97 -355 l-53
-195 715 -3 c735 -2 750 -1 719 35 -6 7 -25 13 -42 13 -18 0 -37 5 -43 11 -8
8 -13 8 -18 0 -4 -8 -18 -1 -41 19 -19 16 -41 30 -49 30 -8 0 -15 4 -15 8 0 5
-6 17 -14 27 -13 18 -14 18 -50 -5 -46 -28 -78 -18 -82 26 -11 96 -16 114 -36
114 -17 0 -19 5 -13 30 4 20 2 37 -6 47 -12 13 -10 18 9 31 30 20 28 44 -8 82
-16 18 -30 42 -30 54 0 26 54 65 102 72 29 5 36 2 48 -20 11 -22 19 -26 41
-21 17 4 32 1 43 -10 21 -21 21 -22 -11 -51 -35 -32 -21 -46 49 -49 76 -3 75
-2 81 -32 8 -37 68 -78 101 -69 21 5 28 1 41 -24 15 -29 40 -34 29 -6 -8 21
16 30 34 13 13 -14 18 -14 44 -1 36 18 35 26 -2 42 -44 20 -60 40 -60 75 0 25
8 37 34 55 44 30 74 22 83 -20 5 -23 10 -29 25 -24 38 9 63 -10 88 -69 18 -42
28 -55 41 -52 14 4 15 1 6 -24 -6 -15 -8 -31 -5 -34 12 -12 85 15 108 40 22
23 50 34 50 18 0 -4 -9 -16 -20 -28 -17 -19 -19 -26 -9 -56 5 -19 14 -41 19
-51 6 -11 5 -20 -4 -27 -11 -9 -15 -7 -19 10 -5 19 -7 20 -27 6 -12 -8 -30
-13 -41 -10 -10 3 -25 0 -33 -6 -9 -8 -28 -10 -49 -6 -35 7 -45 -1 -82 -59 -9
-13 -18 -9 -68 29 -37 29 -64 42 -72 38 -18 -11 -85 -99 -85 -112 0 -6 -7 -11
-16 -11 -11 0 -14 -5 -10 -16 3 -9 6 -20 6 -25 0 -5 313 -9 780 -9 l780 0 0
4235 0 4235 -1805 0 -1805 0 -1 -22 c-3 -65 -10 -85 -36 -107 -25 -21 -27 -30
-27 -90 1 -36 9 -92 18 -124 9 -32 16 -83 16 -115 -1 -31 2 -80 5 -108 7 -49
6 -54 -26 -88 -29 -32 -32 -42 -30 -86 1 -27 -3 -58 -9 -70 -17 -32 -20 -128
-4 -141 20 -17 17 -47 -11 -106 -15 -33 -20 -55 -14 -59 6 -3 8 -13 5 -21 -8
-20 21 -73 40 -73 40 0 58 -141 22 -182 -14 -16 -18 -37 -17 -97 0 -48 -5 -90
-15 -113 -9 -20 -13 -43 -10 -51 8 -23 -29 -60 -62 -59 -16 0 -33 -3 -38 -6
-6 -3 -19 -7 -30 -8 -143 -14 -190 -45 -191 -123 0 -25 3 -55 6 -66 4 -11 3
-30 -2 -43 -7 -17 -14 -21 -31 -17 -20 5 -26 -1 -43 -47 -16 -40 -19 -61 -12
-83 25 -86 31 -103 48 -139 27 -57 23 -69 -6 -17 -14 23 -25 51 -25 60 0 9 -4
21 -9 27 -6 5 -12 20 -15 34 -2 14 -7 33 -11 42 -7 17 19 100 38 126 5 6 20
12 33 12 26 0 31 18 13 51 -6 12 -7 28 -3 37 4 9 6 31 5 48 -2 24 5 38 34 62
37 33 48 37 129 46 27 3 55 11 62 17 8 6 24 9 36 6 30 -8 58 19 58 55 0 16 7
42 15 58 11 22 14 48 10 99 -4 58 -2 72 15 94 36 46 22 167 -20 167 -29 0 -59
107 -41 145 34 68 40 93 25 112 -19 25 -18 142 1 168 11 14 13 32 9 67 -6 43
-4 50 25 78 l31 31 -5 116 c-3 64 -12 138 -20 166 -8 27 -13 53 -10 57 3 4 0
21 -6 37 -11 33 3 115 21 121 26 9 40 36 40 78 l0 44 -750 0 -749 0 -15 -52z
m3667 24 c-6 -4 -11 -14 -11 -22 2 -35 -3 -50 -17 -50 -18 0 -19 9 -4 47 10
28 29 46 38 37 3 -3 0 -8 -6 -12z m162 -2 c-3 -5 -17 -10 -31 -10 -13 0 -24
-4 -24 -10 0 -16 -40 -12 -57 6 -13 13 -17 13 -24 2 -7 -10 -9 -9 -9 5 0 15
10 17 76 17 47 0 73 -4 69 -10z m1185 -504 c0 -8 -13 -17 -30 -21 -45 -10
-120 -12 -120 -4 0 18 27 25 138 38 6 0 12 -5 12 -13z m0 -523 c0 -167 -1
-181 -17 -177 -10 3 -47 0 -83 -6 -36 -6 -90 -15 -120 -20 -30 -5 -95 -12
-145 -15 -49 -4 -103 -8 -120 -9 -16 -1 -38 2 -47 6 -13 6 -18 5 -18 -6 0 -10
-16 -16 -57 -19 -32 -3 -76 -9 -98 -14 -50 -12 -127 -5 -122 10 2 7 26 12 54
13 28 1 64 9 79 17 38 19 84 31 109 28 17 -1 16 2 -8 24 -17 15 -40 25 -60 25
-163 2 -310 -1 -402 -10 -184 -17 -379 -42 -395 -51 -19 -11 -19 -11 127 -11
105 -1 113 -2 127 -23 18 -27 58 -36 88 -21 13 7 49 18 81 25 51 11 61 11 82
-3 14 -9 25 -19 25 -22 0 -10 -28 -33 -33 -27 -4 3 -28 -1 -54 -10 -26 -8 -65
-19 -86 -22 -20 -4 -40 -11 -43 -16 -9 -16 -32 -10 -60 16 -25 23 -35 25 -138
27 -149 4 -276 0 -323 -10 -29 -6 -39 -13 -41 -30 -3 -20 0 -22 22 -16 14 3
26 2 26 -3 0 -8 -91 -34 -98 -28 -4 4 82 339 97 378 10 26 12 27 34 12 13 -8
28 -12 32 -8 5 5 4 1 -3 -9 -11 -14 -9 -18 20 -27 63 -20 172 -25 204 -9 29
15 151 34 269 43 96 7 191 22 214 34 11 6 39 11 63 11 70 -1 142 11 150 25 5
7 16 11 27 8 10 -3 22 0 25 6 10 16 37 14 56 -4 15 -14 20 -12 51 20 19 19 43
35 55 35 11 0 25 5 30 10 13 13 252 35 377 35 l47 0 0 -182z m-2880 143 c0 -2
-11 -6 -25 -8 -13 -3 -22 -1 -19 3 5 9 44 13 44 5z m-233 -228 c-3 -7 -5 -2
-5 12 0 14 2 19 5 13 2 -7 2 -19 0 -25z m2897 -206 c3 -5 33 -10 67 -11 35 -1
67 -5 73 -8 15 -10 -133 -43 -184 -42 -25 1 -56 -3 -70 -8 -14 -6 -31 -8 -37
-6 -7 3 -23 -3 -35 -11 -30 -21 -41 -20 -35 4 4 17 0 20 -25 20 -27 0 -30 -2
-24 -25 6 -24 4 -25 -37 -25 -38 0 -43 3 -43 22 1 18 -5 21 -44 23 -25 1 -33
0 -19 -2 16 -2 29 -12 32 -24 3 -10 2 -19 -1 -20 -24 -2 -322 -4 -322 -2 0 1
14 10 32 19 29 15 30 18 15 29 -26 19 -20 28 13 23 18 -3 35 1 41 9 14 16 43
17 70 2 15 -8 24 -7 35 2 20 17 177 21 243 7 48 -10 54 -10 63 6 9 15 19 17
77 12 39 -4 72 -2 81 4 18 12 27 13 34 2z m216 -37 c0 -24 -5 -35 -14 -35 -15
0 -16 35 -2 58 12 20 16 14 16 -23z m-1394 -20 c10 -8 32 -15 47 -15 16 0 26
-4 23 -9 -3 -5 8 -14 25 -20 41 -14 29 -29 -24 -30 -23 -1 -49 -2 -57 -2 -8
-1 -31 -1 -50 0 -29 2 -31 4 -15 11 l20 8 -20 7 c-52 18 -66 26 -60 35 4 6 21
8 41 4 19 -3 34 -2 33 2 -5 28 8 31 37 9z m-121 -75 c4 -7 12 -7 25 0 13 7 19
6 23 -4 8 -20 -90 -38 -118 -23 -18 11 -17 12 13 15 17 2 32 7 32 13 0 12 17
12 25 -1z m-3955 -390 c0 -5 -4 -10 -10 -10 -5 0 -10 5 -10 10 0 6 5 10 10 10
6 0 10 -4 10 -10z m50 -410 c0 -5 -4 -10 -10 -10 -5 0 -10 5 -10 10 0 6 5 10
10 10 6 0 10 -4 10 -10z m1496 -38 c-3 -5 4 -26 15 -46 11 -21 18 -48 16 -60
-3 -18 -5 -17 -11 9 -5 17 -15 35 -22 41 -8 6 -12 22 -10 35 6 31 5 29 12 29
3 0 3 -4 0 -8z m41 -169 c-3 -10 -5 -4 -5 12 0 17 2 24 5 18 2 -7 2 -21 0 -30z
m-13 -110 c-17 -17 -18 -17 -11 0 4 10 7 28 8 40 l0 22 11 -22 c8 -17 7 -26
-8 -40z m13 -500 c-3 -10 -5 -4 -5 12 0 17 2 24 5 18 2 -7 2 -21 0 -30z
m-1761 2 c-3 -21 -13 -28 -27 -19 -9 5 -7 11 6 21 23 16 24 16 21 -2z m274
-45 c17 -17 30 -40 30 -50 0 -11 5 -20 10 -20 6 0 18 -8 28 -17 44 -41 67 -56
120 -74 30 -10 61 -24 68 -30 13 -10 52 -8 88 7 13 5 17 4 13 -3 -4 -7 4 -14
22 -18 16 -3 36 -14 44 -23 28 -31 67 -126 67 -164 0 -27 6 -41 20 -50 11 -7
20 -20 20 -28 0 -21 33 -40 59 -33 12 3 21 13 21 24 0 10 16 31 35 46 38 31
45 64 20 97 -8 11 -15 30 -15 42 0 30 -15 38 -72 37 -26 0 -45 3 -43 7 6 10
86 6 106 -6 9 -5 19 -24 22 -42 4 -18 14 -40 22 -48 21 -21 9 -64 -26 -92 -16
-13 -29 -32 -29 -42 0 -10 -7 -26 -16 -34 -8 -9 -11 -16 -5 -16 6 0 15 -18 21
-39 l10 -39 65 -7 c53 -6 68 -12 77 -29 6 -11 21 -32 33 -46 12 -14 25 -37 29
-52 5 -20 19 -33 57 -50 39 -18 52 -29 56 -51 3 -16 17 -33 32 -41 42 -22 58
-47 72 -110 7 -33 23 -70 36 -84 13 -14 23 -31 23 -39 0 -11 20 -13 100 -10
87 3 102 1 120 -15 11 -10 20 -25 20 -33 0 -8 11 -22 25 -31 21 -14 28 -14 43
-3 16 13 16 12 -1 -7 -16 -19 -16 -24 -2 -65 9 -24 24 -53 35 -64 29 -31 52
-94 45 -124 -3 -16 1 -49 10 -75 9 -26 14 -51 10 -54 -16 -17 -50 87 -40 125
6 27 -22 100 -48 122 -9 7 -24 11 -32 7 -8 -3 -15 -1 -15 3 0 5 5 11 10 13 13
4 -24 93 -43 105 -7 4 -19 22 -27 38 l-16 30 -97 -2 c-96 -2 -98 -2 -115 25
-9 15 -25 34 -34 42 -10 8 -24 42 -33 74 -16 63 -34 90 -76 112 -16 8 -29 25
-32 42 -4 22 -14 31 -33 36 -44 11 -84 45 -84 70 0 31 -18 44 -74 55 -26 5
-53 14 -59 20 -6 6 -18 11 -27 11 -9 0 -25 8 -36 19 -15 14 -25 16 -38 9 -9
-5 -23 -7 -30 -5 -11 5 -27 47 -30 82 -1 11 -14 28 -54 70 -17 19 -33 25 -65
25 -33 1 -38 3 -24 11 9 5 22 7 27 4 7 -4 9 5 5 27 -3 18 -8 50 -11 70 -3 21
-10 36 -14 33 -5 -3 -11 4 -15 15 -7 23 -25 27 -25 5 0 -19 -14 -19 -30 0 -7
8 -16 12 -21 9 -5 -3 -50 8 -101 25 -51 16 -121 38 -155 47 -34 10 -59 22 -56
28 3 5 1 6 -5 2 -17 -10 -52 31 -52 62 0 41 35 162 47 162 2 0 17 -14 33 -30z
m-310 -5 c0 -8 -4 -15 -10 -15 -5 0 -10 7 -10 15 0 8 5 15 10 15 6 0 10 -7 10
-15z m214 -16 c-3 -5 -10 -7 -15 -3 -5 3 -7 10 -3 15 3 5 10 7 15 3 5 -3 7
-10 3 -15z m-294 -19 c0 -5 -4 -10 -10 -10 -5 0 -10 5 -10 10 0 6 5 10 10 10
6 0 10 -4 10 -10z m60 -41 c0 -5 -4 -9 -10 -9 -5 0 -10 7 -10 16 0 8 5 12 10
9 6 -3 10 -10 10 -16z m210 1 c0 -5 -4 -10 -10 -10 -5 0 -10 5 -10 10 0 6 5
10 10 10 6 0 10 -4 10 -10z m30 -20 c0 -5 -7 -10 -16 -10 -8 0 -12 5 -9 10 3
6 10 10 16 10 5 0 9 -4 9 -10z m1634 -51 c10 -16 12 -29 7 -29 -6 0 -11 6 -11
14 0 8 -15 26 -32 41 -29 22 -30 24 -7 15 14 -7 33 -25 43 -41z m-1900 -61 c4
-23 12 -48 18 -56 9 -10 8 -16 -2 -22 -16 -10 -20 -73 -7 -113 7 -21 5 -34 -8
-53 -9 -14 -14 -28 -11 -32 3 -3 6 0 6 7 0 7 5 9 13 4 6 -4 23 -6 36 -4 22 3
23 0 19 -43 -2 -34 0 -45 9 -41 7 2 13 1 13 -4 0 -5 -11 -12 -24 -15 -17 -4
-25 -15 -30 -38 -5 -24 -9 -29 -15 -19 -6 10 -13 -4 -22 -43 -9 -43 -10 -59
-1 -68 9 -9 12 -3 13 28 1 38 2 38 9 9 4 -16 8 -51 9 -77 0 -27 6 -48 11 -48
6 0 10 -12 10 -27 -1 -26 -2 -27 -14 -10 -12 16 -14 16 -20 1 -9 -23 -7 -54 3
-51 10 2 11 -2 11 -30 0 -11 -9 -4 -22 20 -15 25 -29 37 -44 37 -31 0 -41 -20
-19 -37 11 -7 14 -13 8 -13 -7 0 -13 -6 -16 -12 -2 -7 -3 -5 -2 5 2 9 -3 17
-11 17 -9 0 -11 6 -7 17 6 15 5 16 -9 3 -14 -13 -14 -16 -1 -24 11 -6 13 -17
9 -41 -9 -44 11 -56 25 -15 17 46 19 32 4 -20 -22 -77 -27 -90 -36 -90 -5 0
-9 -5 -9 -11 0 -5 5 -7 10 -4 15 9 11 -17 -5 -39 -8 -11 -15 -30 -15 -42 0
-26 -16 -40 -23 -22 -3 8 -6 6 -6 -4 -1 -10 -7 -17 -13 -15 -7 1 -14 -9 -16
-23 -3 -24 -3 -25 12 -5 15 19 16 19 6 -8 -13 -36 -13 -37 5 -37 16 0 20 -16
6 -24 -5 -3 -14 1 -21 9 -7 8 -21 15 -32 15 -10 0 -21 7 -24 15 -4 8 -10 12
-15 9 -5 -3 -9 -1 -9 5 0 6 -13 6 -36 -1 -20 -5 -38 -7 -41 -4 -3 3 4 36 15
73 19 60 60 232 67 273 1 8 7 27 13 41 6 15 25 82 42 150 18 68 45 167 61 220
16 53 29 105 29 115 0 11 7 29 15 40 8 12 12 24 8 27 -3 4 -1 12 5 19 14 18
36 102 41 161 1 4 5 7 10 7 5 0 11 -19 15 -42z m120 -3 c3 -9 0 -15 -9 -15 -8
0 -15 7 -15 15 0 8 4 15 9 15 5 0 11 -7 15 -15z m2034 -86 c19 -23 20 -29 8
-29 -9 0 -16 4 -16 8 0 5 -6 17 -14 28 -15 19 -15 19 -31 -1 -9 -11 -21 -33
-27 -48 -15 -39 -21 -28 -7 14 23 68 49 76 87 28z m-173 -95 c9 -15 12 -23 6
-20 -11 7 -35 46 -28 46 3 0 12 -12 22 -26z m89 -43 c-3 -14 -7 -32 -7 -38 0
-7 -4 -13 -9 -13 -4 0 -9 -10 -9 -22 -2 -22 -2 -22 -6 1 -3 13 -11 31 -19 38
-8 8 -14 22 -13 31 0 13 3 11 11 -5 6 -13 17 -23 23 -23 15 0 28 53 14 58 -5
2 -9 8 -9 14 0 6 6 5 16 -3 10 -8 13 -20 8 -38z m-2253 -18 c7 -10 9 -14 4
-10 -6 5 -14 -6 -21 -25 l-12 -33 3 40 c4 54 5 55 26 28z m2309 -23 c8 -5 11
-10 5 -10 -5 0 -17 5 -25 10 -8 5 -10 10 -5 10 6 0 17 -5 25 -10z m-80 -79 c0
-11 -9 -22 -19 -26 -13 -4 -21 -17 -24 -38 l-4 -32 -1 32 c-1 23 4 37 17 45
10 6 17 18 14 25 -3 7 0 13 6 13 6 0 11 -9 11 -19z m-1986 -76 c-4 -8 -8 -15
-10 -15 -2 0 -4 7 -4 15 0 8 4 15 10 15 5 0 7 -7 4 -15z m1976 -75 c0 -8 -7
-2 -15 14 -19 36 -19 45 0 20 8 -10 14 -26 15 -34z m-1965 31 c3 -5 1 -12 -5
-16 -5 -3 -10 1 -10 9 0 18 6 21 15 7z m-338 -43 c-3 -8 -6 -5 -6 6 -1 11 2
17 5 13 3 -3 4 -12 1 -19z m2349 -122 c-2 -6 -5 -3 -5 7 -1 9 -5 17 -9 17 -5
0 -14 11 -20 25 -19 41 -14 41 13 0 14 -20 24 -42 21 -49z m-26 -31 c-7 -9
-15 -13 -17 -11 -6 6 20 36 26 30 2 -2 -2 -10 -9 -19z m-2360 -55 c0 -5 -5
-10 -11 -10 -5 0 -7 5 -4 10 3 6 8 10 11 10 2 0 4 -4 4 -10z m1243 -22 c-7
-28 -43 -81 -50 -74 -3 2 4 15 16 27 12 13 21 30 21 39 0 14 8 30 16 30 1 0 0
-10 -3 -22z m-1252 -62 c5 3 9 -4 9 -15 0 -12 -4 -21 -10 -21 -5 0 -10 4 -10
9 0 5 -2 15 -3 23 -2 7 -2 10 0 5 3 -4 9 -5 14 -1z m319 4 c0 -5 -5 -10 -11
-10 -5 0 -7 5 -4 10 3 6 8 10 11 10 2 0 4 -4 4 -10z m-50 -94 c0 -11 -19 -15
-25 -6 -3 5 1 10 9 10 9 0 16 -2 16 -4z m30 0 c0 -3 -4 -8 -10 -11 -5 -3 -10
-1 -10 4 0 6 5 11 10 11 6 0 10 -2 10 -4z m-60 -126 c0 -5 -7 -10 -15 -10 -8
0 -15 5 -15 10 0 6 7 10 15 10 8 0 15 -4 15 -10z m-27 -86 c-7 -18 -7 -18 -27
5 -16 17 -16 18 8 14 16 -3 23 -10 19 -19z m-323 -4 c0 -5 -5 -10 -11 -10 -5
0 -7 5 -4 10 3 6 8 10 11 10 2 0 4 -4 4 -10z m2093 -134 c-3 -4 -9 -2 -14 5
-13 22 -11 31 5 17 8 -7 12 -17 9 -22z m-2374 -129 c8 -10 7 -14 -2 -14 -8 0
-14 6 -14 14 0 7 1 13 2 13 2 0 8 -6 14 -13z m4479 -12 c2 -2 -10 -6 -27 -10
-27 -6 -61 10 -61 28 0 5 82 -11 88 -18z m-765 -25 c58 -12 60 -14 57 -61 -1
-29 27 -48 36 -24 5 12 11 11 40 -3 33 -15 38 -15 85 1 47 17 87 15 59 -3 -14
-9 -6 -40 10 -40 5 0 10 7 10 15 0 9 6 12 16 8 9 -3 19 0 24 7 6 9 12 9 29 0
16 -8 26 -8 35 0 10 8 15 7 19 -4 7 -18 -1 -26 -25 -26 -15 0 -19 -6 -16 -27
3 -27 1 -28 -38 -25 -36 3 -42 0 -47 -19 -5 -19 -8 -20 -21 -9 -9 7 -16 19
-16 26 0 13 -13 19 -34 15 -4 -1 -13 3 -20 8 -6 5 -44 9 -84 9 l-72 -1 -22
-38 c-12 -22 -25 -39 -29 -39 -4 0 -20 11 -36 24 -16 13 -40 25 -53 25 -14 1
-59 2 -100 4 -41 1 -81 6 -88 11 -42 26 -77 26 -130 0 -49 -24 -58 -25 -93
-15 -44 13 -44 26 1 36 17 4 30 13 30 21 0 8 8 18 18 21 9 4 31 17 48 30 28
21 37 23 75 14 27 -6 49 -6 60 0 10 5 29 9 43 9 18 0 30 9 41 30 21 40 40 48
88 39 23 -4 68 -13 100 -19z m618 -70 c-2 -8 -4 -20 -4 -27 -1 -31 -75 -37
-99 -9 -24 29 -22 36 10 36 15 0 34 5 42 10 22 14 56 8 51 -10z m-1951 -20 c0
-5 -7 -7 -15 -4 -8 4 -12 10 -9 15 6 11 24 2 24 -11z m1833 -51 c-17 -17 -37
-1 -22 17 8 10 15 12 23 4 7 -7 7 -13 -1 -21z m-284 -140 c-7 -4 -17 -5 -22
-2 -5 3 -3 9 4 14 7 4 17 5 22 2 5 -3 3 -9 -4 -14z m216 -5 c14 -9 21 -22 18
-30 -6 -16 -53 -19 -53 -3 0 5 -13 15 -30 20 -16 6 -27 15 -24 20 9 14 63 10
89 -7z m-30 -154 c3 -5 -1 -10 -9 -10 -9 0 -16 5 -16 10 0 6 4 10 9 10 6 0 13
-4 16 -10z m1495 -56 c0 -10 -6 -14 -15 -10 -18 7 -20 -10 -2 -18 6 -3 3 -5
-7 -3 -39 4 -25 34 22 46 1 1 2 -6 2 -15z m-3252 -57 c-9 -6 -18 -19 -21 -27
-4 -11 -6 -10 -6 4 -1 10 7 25 16 32 22 16 32 8 11 -9z m-21 -84 c-3 -10 -5
-4 -5 12 0 17 2 24 5 18 2 -7 2 -21 0 -30z m1110 21 c-3 -3 -12 -4 -19 -1 -8
3 -5 6 6 6 11 1 17 -2 13 -5z m-852 -10 c28 -11 -52 -36 -123 -38 -52 -2 -62
0 -60 13 3 13 18 16 75 17 40 0 76 3 79 7 9 9 8 9 29 1z m3835 -91 c0 -57 -3
-84 -10 -77 -15 15 -22 94 -10 109 6 7 10 17 9 21 -2 15 1 34 6 34 3 0 5 -39
5 -87z m-4132 8 c-13 -15 -25 -27 -27 -25 -4 4 39 54 47 54 2 0 -7 -13 -20
-29z m-31 -93 c-2 -13 -4 -5 -4 17 -1 22 1 32 4 23 2 -10 2 -28 0 -40z m0 -60
c-3 -7 -5 -2 -5 12 0 14 2 19 5 13 2 -7 2 -19 0 -25z m-8 -75 c0 -29 -2 -33
-8 -18 -7 18 -4 55 5 55 2 0 4 -17 3 -37z m4170 -15 c-1 -24 -4 -33 -6 -20 -6
30 -29 28 -47 -5 -8 -16 -15 -21 -16 -13 0 11 57 80 67 80 2 0 2 -19 2 -42z
m-4149 -82 c0 -39 -6 -30 -13 19 -4 27 -3 35 3 25 5 -8 10 -28 10 -44z m-26
-92 c-10 -19 -22 -34 -27 -34 -4 0 -12 -12 -18 -28 -5 -15 -19 -32 -32 -37
-17 -8 -21 -17 -20 -41 2 -22 -4 -37 -20 -50 l-22 -19 18 21 c12 15 16 30 12
47 -5 20 -1 29 24 48 17 12 31 28 31 34 0 7 9 20 20 30 11 10 25 33 32 52 7
19 14 29 16 23 2 -6 -4 -27 -14 -46z m-234 -194 c0 -5 -2 -10 -4 -10 -3 0 -8
5 -11 10 -3 6 -1 10 4 10 6 0 11 -4 11 -10z m3455 -30 c3 -5 -1 -10 -10 -10
-9 0 -13 5 -10 10 3 6 8 10 10 10 2 0 7 -4 10 -10z m936 -126 c-11 -15 -21
-31 -21 -37 0 -6 -6 -18 -14 -26 -23 -26 -34 -84 -26 -132 5 -24 12 -67 18
-96 5 -29 6 -50 2 -48 -5 3 -10 22 -13 42 -3 21 -11 68 -17 105 -12 65 -11 68
20 135 29 63 57 99 68 88 2 -2 -5 -16 -17 -31z m-941 -714 c0 -5 -4 -10 -10
-10 -5 0 -10 5 -10 10 0 6 5 10 10 10 6 0 10 -4 10 -10z m760 0 c0 -5 -5 -10
-11 -10 -5 0 -7 5 -4 10 3 6 8 10 11 10 2 0 4 -4 4 -10z m-950 -40 c0 -5 -4
-10 -10 -10 -5 0 -10 5 -10 10 0 6 5 10 10 10 6 0 10 -4 10 -10z m642 -220 c7
-11 20 -20 29 -20 19 0 95 -50 145 -95 29 -27 37 -42 38 -72 1 -35 4 -39 61
-68 58 -30 60 -33 68 -80 4 -27 12 -54 17 -60 5 -6 6 -21 3 -34 -4 -17 2 -29
24 -49 34 -31 61 -85 38 -76 -8 3 -15 15 -17 27 -2 12 -17 31 -34 42 -28 18
-32 28 -45 104 l-14 83 -49 19 c-27 10 -51 18 -55 17 -25 -3 -31 6 -31 45 -1
39 -26 87 -46 87 -4 0 -22 14 -39 30 -20 19 -47 33 -71 37 -48 7 -64 19 -64
48 0 39 22 47 42 15z m-885 -830 c2 -19 -14 -37 -23 -27 -5 5 13 47 19 47 2 0
3 -9 4 -20z m1393 -29 c0 -6 -4 -12 -8 -15 -5 -3 -9 1 -9 9 0 8 4 15 9 15 4 0
8 -4 8 -9z"/>
<path d="M12410 7510 c20 -13 43 -13 35 0 -3 6 -16 10 -28 10 -18 0 -19 -2 -7
-10z"/>
<path d="M8020 4735 c0 -25 14 -34 24 -16 8 12 -3 41 -15 41 -5 0 -9 -11 -9
-25z"/>
<path d="M8194 4675 c24 -18 49 -20 44 -2 -3 6 -18 13 -34 15 -28 2 -28 2 -10
-13z"/>
<path d="M7093 5015 c0 -8 4 -15 9 -15 4 0 8 4 8 9 0 6 -4 12 -8 15 -5 3 -9
-1 -9 -9z"/>
<path d="M7145 4820 c3 -5 8 -10 11 -10 2 0 4 5 4 10 0 6 -5 10 -11 10 -5 0
-7 -4 -4 -10z"/>
<path d="M7150 4772 c0 -12 4 -22 9 -22 10 0 9 26 -2 36 -4 4 -7 -2 -7 -14z"/>
<path d="M4040 8121 c0 -5 5 -13 10 -16 6 -3 10 -2 10 4 0 5 -4 13 -10 16 -5
3 -10 2 -10 -4z"/>
<path d="M570 5890 c0 -13 18 -22 24 -11 3 5 -1 11 -9 15 -8 3 -15 1 -15 -4z"/>
<path d="M7337 4913 c-4 -3 -7 -11 -7 -17 0 -6 5 -5 12 2 6 6 9 14 7 17 -3 3
-9 2 -12 -2z"/>
<path d="M7378 4913 c7 -3 16 -2 19 1 4 3 -2 6 -13 5 -11 0 -14 -3 -6 -6z"/>
<path d="M7272 4094 c-7 -8 -10 -18 -7 -24 8 -13 35 -1 35 15 0 21 -13 25 -28
9z"/>
<path d="M7225 4060 c3 -5 8 -10 11 -10 2 0 4 5 4 10 0 6 -5 10 -11 10 -5 0
-7 -4 -4 -10z"/>
<path d="M7300 4031 c0 -12 -6 -21 -15 -21 -8 0 -15 4 -15 9 0 5 -13 11 -29
13 -17 2 -28 1 -25 -3 2 -5 -9 -15 -26 -24 -16 -8 -30 -20 -30 -26 0 -6 -4 -7
-10 -4 -6 3 -7 -1 -4 -9 6 -16 -11 -23 -20 -8 -2 4 -18 9 -34 10 -27 2 -31 -2
-41 -40 -29 -103 -33 -126 -32 -173 1 -43 6 -53 32 -73 35 -28 65 -92 48 -102
-6 -4 -12 -38 -13 -76 -2 -57 -7 -76 -29 -108 -15 -21 -27 -45 -27 -52 0 -7
-18 -32 -40 -56 -22 -24 -40 -46 -40 -50 0 -4 -13 -14 -30 -23 -16 -9 -30 -21
-30 -28 -1 -6 -14 -28 -30 -47 l-30 -34 0 26 c0 14 7 31 15 38 8 7 15 19 15
26 0 8 13 22 28 32 72 44 159 174 168 247 2 17 6 53 9 80 7 60 0 85 -24 85
-12 0 -22 14 -31 41 -8 23 -16 35 -18 28 -2 -8 -10 -31 -19 -51 -15 -36 -18
-38 -67 -40 -28 0 -58 0 -66 0 -92 10 -140 -4 -140 -39 0 -11 -7 -22 -15 -25
-9 -4 -15 -19 -16 -38 0 -17 -3 -25 -6 -17 -5 11 -7 11 -15 0 -7 -10 -8 -8 -5
9 8 37 -9 25 -42 -28 -17 -28 -36 -48 -41 -45 -6 3 -10 1 -10 -5 0 -8 -9 -10
-27 -5 -16 4 -35 8 -43 9 -8 2 -21 14 -28 27 -13 22 -13 22 -9 2 4 -16 -1 -23
-19 -27 -13 -4 -24 -14 -24 -23 0 -13 -6 -11 -29 11 -16 16 -34 25 -40 22 -6
-4 -11 -2 -11 3 0 20 -20 11 -30 -13 -9 -24 -47 -40 -100 -41 -20 0 -26 -6
-28 -30 -2 -16 -9 -36 -15 -43 -9 -11 -13 -11 -24 4 -7 10 -13 14 -13 10 0 -5
-6 -3 -14 3 -12 10 -15 6 -21 -19 -4 -16 -11 -28 -16 -24 -5 3 -9 -10 -9 -28
0 -18 -4 -28 -8 -23 -6 9 -15 11 -38 6 -4 0 -1 -7 5 -15 14 -17 -7 -66 -37
-88 -19 -13 -26 -48 -10 -48 4 0 8 -7 8 -15 0 -8 5 -15 11 -15 6 0 9 -6 6 -14
-3 -8 -1 -17 6 -20 9 -3 9 -5 0 -5 -14 -1 -5 -40 15 -63 14 -17 13 -18 -15
-18 -38 0 -57 22 -56 66 1 19 -3 34 -8 34 -5 0 -9 9 -9 20 0 11 -5 20 -10 20
-6 0 -15 11 -20 25 -7 17 -17 25 -34 25 -50 0 -73 19 -80 66 -3 24 -3 51 1 60
4 11 2 15 -4 11 -6 -4 -9 6 -8 23 1 23 -2 30 -17 30 -10 0 -18 -7 -18 -15 0
-9 -9 -15 -23 -15 -12 0 -31 -6 -42 -14 -11 -7 -41 -16 -67 -20 -26 -4 -50
-12 -54 -17 -3 -6 -12 -3 -20 8 -13 17 -14 17 -8 0 4 -12 2 -16 -8 -12 -8 3
-27 1 -42 -5 -15 -5 -25 -6 -21 -1 3 5 1 12 -5 16 -5 3 -10 -1 -10 -9 0 -22
-21 -31 -34 -14 -15 21 -48 18 -54 -4 -3 -11 -13 -18 -29 -18 -16 0 -27 -7
-30 -19 -3 -12 -11 -17 -19 -14 -8 3 -11 9 -8 14 7 12 -3 11 -29 -3 -26 -14
-34 -16 -109 -24 -32 -4 -56 -10 -53 -14 3 -4 -23 -10 -56 -12 -33 -2 -64 -9
-67 -15 -4 -5 -19 -13 -34 -16 -22 -6 -28 -3 -36 21 -9 25 -11 21 -35 -58 -35
-114 -165 -587 -173 -627 -4 -18 -3 -33 2 -33 20 0 75 47 81 70 4 14 19 38 35
53 15 16 26 33 23 37 -6 10 34 34 43 26 3 -4 -6 -19 -20 -34 -14 -15 -23 -33
-21 -40 3 -7 -4 -23 -15 -35 -26 -29 -35 -92 -16 -108 13 -11 20 -49 9 -49 -3
0 -14 6 -25 12 -27 17 -54 0 -57 -37 -2 -26 -37 -75 -55 -75 -4 0 -8 11 -8 25
0 14 -5 25 -11 25 -6 0 -9 -6 -6 -14 3 -7 0 -22 -7 -32 -8 -11 -16 -28 -20
-39 -6 -19 -2 -20 69 -17 51 3 80 0 91 -9 13 -10 16 -9 21 9 3 13 16 25 32 29
14 3 39 19 55 35 25 26 27 32 17 54 -6 14 -11 33 -11 43 0 10 -7 24 -15 31 -8
7 -14 26 -14 44 1 17 -2 50 -6 74 -6 30 -4 42 4 42 7 0 10 4 7 9 -11 16 20 60
55 81 38 20 85 28 74 11 -5 -9 20 -8 99 5 16 2 36 13 43 24 8 11 18 18 23 15
4 -3 22 8 39 25 35 32 59 42 111 47 19 1 62 7 95 12 33 5 78 7 101 4 26 -3 51
0 70 10 30 15 30 15 77 -30 46 -43 51 -53 48 -81 -1 -8 4 -19 13 -25 16 -13
26 -46 14 -45 -37 1 -50 12 -44 39 4 22 -2 35 -35 71 -22 24 -38 37 -34 31 3
-7 1 -13 -5 -13 -6 0 -9 -4 -5 -9 9 -16 -15 -24 -31 -10 -19 15 -173 17 -183
1 -3 -5 -30 -9 -59 -8 -34 1 -52 -3 -52 -11 0 -6 6 -14 13 -17 10 -5 10 -7 0
-12 -17 -8 -16 -24 1 -24 20 0 8 -50 -13 -51 -10 0 -11 -2 -3 -6 6 -2 12 -10
12 -16 0 -14 -88 -17 -109 -3 -9 6 -17 3 -23 -8 -5 -9 -17 -16 -26 -16 -10 0
-24 -6 -31 -12 -10 -11 -12 -8 -9 12 2 17 10 26 24 28 20 3 42 42 24 42 -19 0
-87 -48 -136 -97 -29 -29 -59 -53 -67 -53 -8 0 -17 -9 -20 -21 -3 -12 -10 -18
-16 -14 -24 14 -9 -27 19 -51 16 -15 29 -36 29 -48 0 -12 2 -31 6 -43 6 -17 0
-30 -26 -55 -18 -18 -34 -37 -34 -43 0 -5 -13 -9 -28 -8 -31 2 -29 6 -32 -67
-2 -62 -27 -120 -52 -120 -15 0 -15 2 1 19 9 10 19 34 22 52 5 31 2 35 -26 48
-29 12 -33 11 -55 -9 l-23 -22 -7 21 c-3 12 -13 21 -21 21 -8 0 -14 5 -14 10
0 6 -7 10 -15 10 -8 0 -15 -4 -15 -9 0 -5 -8 -11 -18 -14 -23 -5 -37 -47 -16
-47 20 0 17 -18 -5 -25 -18 -5 -54 -112 -86 -255 -7 -30 -29 -111 -49 -180
-21 -69 -57 -199 -81 -290 -24 -91 -74 -275 -110 -410 -60 -222 -140 -522
-209 -782 -14 -54 -26 -102 -26 -108 0 -7 665 -10 1994 -10 l1993 0 21 72 c11
40 37 136 57 213 21 77 43 160 51 185 34 117 95 344 115 430 12 52 32 128 45
169 13 40 24 86 24 102 0 15 4 30 9 34 5 3 12 20 16 38 11 55 124 490 140 537
8 25 21 74 29 110 8 36 25 104 39 151 39 131 43 159 23 159 -9 0 -28 7 -41 16
-27 18 -45 12 -45 -15 0 -10 -9 -26 -20 -36 -11 -10 -20 -28 -20 -40 0 -11 -5
-26 -11 -32 -6 -6 -10 -30 -7 -52 3 -31 0 -40 -9 -37 -14 6 -16 -4 -13 -42 2
-30 -19 -92 -32 -92 -7 0 -8 -36 -3 -107 10 -161 7 -212 -17 -260 -12 -24 -23
-41 -25 -39 -2 2 5 21 16 42 21 42 28 118 17 194 -10 66 -6 163 7 178 13 17
18 34 23 87 8 86 17 125 30 136 15 12 20 54 5 45 -14 -9 -23 26 -10 38 9 8 10
7 6 -6 -3 -9 0 -19 7 -21 15 -6 36 11 36 27 0 6 7 23 14 38 14 27 14 28 -44
63 -31 19 -62 35 -67 35 -11 0 -59 95 -68 135 -16 75 -16 97 0 147 10 29 30
67 45 85 45 51 47 114 6 163 -7 8 -19 43 -25 78 -7 35 -21 78 -32 96 -11 18
-17 40 -14 47 3 8 -4 32 -15 54 -11 21 -20 45 -20 51 0 7 -5 14 -11 16 -6 2
-12 13 -13 23 -1 11 -8 32 -16 48 -12 25 -11 29 10 53 21 21 22 28 12 44 -7
11 -12 27 -12 37 0 9 -7 24 -15 33 -23 26 -34 74 -22 96 6 10 14 35 17 55 6
33 3 41 -26 71 -17 18 -39 39 -48 46 -18 14 -23 92 -6 92 22 0 8 29 -25 54
-19 15 -35 24 -35 20 0 -3 -7 -1 -15 6 -13 11 -14 10 -10 -2 4 -10 -4 -15 -31
-16 -21 -2 -41 -5 -46 -8 -4 -3 -8 4 -8 14 0 11 7 22 15 25 8 3 12 15 10 25
-3 16 1 19 18 16 12 -2 16 -2 10 2 -7 3 -13 13 -13 21 0 9 -6 13 -15 9 -8 -3
-14 -2 -14 2 5 34 -17 45 -61 29 -23 -9 -33 -21 -42 -49 -6 -21 -19 -45 -30
-54 -24 -22 -23 -33 2 -27 11 3 17 9 14 14 -3 5 -1 9 4 9 19 0 22 -33 5 -46
-20 -15 -53 -18 -53 -6 0 11 -46 32 -70 32 -11 0 -20 -7 -20 -15 0 -8 -7 -15
-15 -15 -22 0 -29 -25 -16 -62 10 -29 9 -34 -16 -61 -16 -16 -40 -35 -54 -42
-24 -13 -27 -11 -59 24 -27 30 -39 36 -62 33 -15 -2 -28 0 -28 5 0 6 -20 18
-44 28 -25 10 -43 22 -40 26 5 8 44 0 44 -10 0 -13 62 -33 85 -27 19 5 25 2
25 -9 0 -16 48 -64 64 -65 5 0 25 15 45 33 34 31 36 36 28 68 -10 38 -22 49
-54 49 -14 0 -23 6 -23 15 0 8 -4 15 -9 15 -6 0 -4 11 3 25 7 14 11 36 8 50
-5 28 -22 24 -22 -5 0 -10 -13 -28 -30 -40 -24 -17 -30 -18 -30 -6 0 9 -13 18
-35 22 -22 4 -45 18 -62 38 -14 17 -29 31 -34 31 -4 0 -11 3 -15 8 -4 4 -20 7
-35 7 -15 0 -30 4 -33 9 -3 4 5 6 19 3 21 -4 24 -1 22 24 -3 32 -27 46 -27 15z
m-80 -80 c0 -5 9 -13 20 -16 31 -10 24 -24 -7 -16 -27 7 -46 41 -24 41 6 0 11
-4 11 -9z m690 -14 c23 -19 22 -37 -1 -37 -16 0 -20 5 -16 20 3 10 0 21 -7 24
-6 2 -6 5 -1 5 6 0 17 -5 25 -12z m-745 -17 c13 -6 15 -9 5 -9 -8 0 -22 4 -30
9 -18 12 -2 12 25 0z m205 -77 c0 -7 -4 -13 -9 -13 -11 0 -61 44 -61 52 0 12
69 -28 70 -39z m80 37 c0 -5 -7 -7 -15 -4 -8 4 -15 8 -15 10 0 2 7 4 15 4 8 0
15 -4 15 -10z m-70 -150 c0 -5 -5 -10 -11 -10 -5 0 -7 5 -4 10 3 6 8 10 11 10
2 0 4 -4 4 -10z m68 -39 c26 -22 28 -31 7 -31 -9 0 -19 8 -22 18 -4 9 -11 20
-17 24 -7 5 -7 8 -1 8 6 -1 20 -9 33 -19z m-321 -141 c0 -19 -4 -27 -10 -21
-5 5 -6 18 -2 30 9 29 12 26 12 -9z m20 -104 c-3 -8 -1 -17 6 -20 9 -3 9 -5 0
-5 -15 -1 -26 16 -18 29 9 15 18 12 12 -4z m108 -36 c10 -11 13 -20 7 -20 -6
0 -16 8 -21 18 -10 16 -12 16 -25 0 -13 -18 -36 -24 -36 -10 0 6 34 27 51 31
3 0 14 -8 24 -19z m-686 -59 c7 -5 11 -13 7 -19 -9 -15 -41 -7 -44 11 -4 18
15 22 37 8z m-972 -123 c-3 -8 -6 -5 -6 6 -1 11 2 17 5 13 3 -3 4 -12 1 -19z
m1753 6 c0 -3 -7 -12 -15 -20 -12 -13 -15 -13 -15 -1 0 7 3 17 7 20 8 8 23 9
23 1z m-1610 -8 c0 -3 -4 -8 -10 -11 -5 -3 -10 -1 -10 4 0 6 5 11 10 11 6 0
10 -2 10 -4z m1512 -66 c-13 -11 -21 -24 -17 -30 3 -5 1 -10 -4 -10 -16 0 -14
14 6 49 12 20 21 27 28 20 7 -7 2 -17 -13 -29z m98 24 c0 -8 -5 -12 -10 -9 -6
4 -8 11 -5 16 9 14 15 11 15 -7z m-34 -119 c-12 -18 -14 -30 -7 -43 7 -14 4
-26 -15 -50 -14 -18 -30 -32 -36 -32 -7 0 -1 11 11 24 20 22 28 46 21 71 -6
24 1 44 18 48 9 3 19 5 21 6 2 0 -4 -10 -13 -24z m-85 -164 c-10 -7 -11 -13
-1 -32 11 -23 10 -23 -4 -5 -21 26 -20 46 2 46 13 0 14 -2 3 -9z m-451 -33 c0
-13 -4 -30 -9 -37 -6 -10 -5 -27 5 -49 8 -19 14 -52 14 -73 0 -21 8 -52 19
-70 10 -17 16 -39 14 -50 -4 -13 2 -21 19 -28 37 -14 52 -62 51 -162 -1 -61
-7 -106 -22 -149 -12 -34 -24 -92 -27 -128 -3 -37 -7 -73 -10 -81 -2 -7 0 -19
5 -25 16 -20 59 -140 69 -191 6 -27 16 -75 23 -106 11 -50 11 -60 -4 -83 -9
-14 -17 -32 -17 -41 0 -9 -11 -27 -24 -40 -14 -13 -27 -42 -31 -66 -4 -24 -16
-58 -27 -77 -13 -25 -16 -38 -9 -45 6 -6 11 -22 11 -35 0 -13 9 -35 19 -49 11
-13 25 -49 31 -80 7 -30 21 -70 31 -88 14 -23 16 -35 9 -40 -7 -4 -10 -30 -8
-65 2 -37 -2 -63 -11 -74 -7 -8 -11 -22 -8 -30 3 -7 -3 -27 -13 -44 -10 -16
-22 -51 -25 -76 -6 -39 -15 -53 -51 -83 -53 -43 -57 -77 -20 -151 l24 -47 -26
-53 c-13 -29 -27 -50 -30 -48 -3 3 -1 11 4 18 6 7 15 30 22 50 12 34 11 42
-13 87 -36 71 -33 94 20 150 36 38 46 58 51 95 4 26 12 53 19 60 20 20 33 111
22 159 -3 16 -1 37 6 47 8 14 8 24 -1 42 -6 13 -18 49 -26 80 -7 31 -23 70
-34 86 -25 34 -40 126 -23 136 14 9 15 56 1 56 -5 0 -10 5 -10 12 0 6 3 8 7 5
11 -11 33 14 33 38 0 13 11 32 25 43 14 11 25 25 25 32 0 7 8 25 17 41 16 26
16 32 1 81 -9 29 -19 75 -23 102 -9 63 -22 99 -35 91 -6 -4 -10 8 -10 28 0 19
-6 40 -14 46 -19 16 -30 68 -18 84 5 7 12 35 15 62 3 28 16 84 30 125 31 97
30 231 -2 263 -17 18 -22 19 -37 6 -16 -12 -17 -12 -9 1 14 23 5 82 -16 108
-12 16 -19 41 -19 68 0 23 -5 55 -11 71 -7 20 -7 39 2 70 12 46 29 58 29 21z
m-748 -22 c-4 -32 -1 -35 47 -59 45 -23 52 -24 65 -11 13 13 16 11 21 -18 4
-18 1 -46 -5 -62 -10 -27 -8 -32 16 -51 26 -21 26 -23 15 -74 -10 -45 -9 -55
4 -65 17 -12 55 -114 55 -146 0 -12 7 -29 16 -38 12 -12 15 -27 10 -60 -3 -26
-1 -52 6 -65 18 -32 19 -84 2 -98 -8 -6 -14 -8 -14 -4 0 4 -7 2 -15 -5 -20
-17 -33 -5 -41 36 -4 23 -18 43 -40 61 -19 14 -34 32 -34 40 0 18 -38 93 -48
94 -14 1 -87 1 -120 0 -21 -1 -41 -10 -56 -26 l-23 -25 -15 22 c-14 20 -16 21
-46 6 -26 -14 -34 -14 -49 -2 -10 8 -13 13 -6 14 7 0 20 14 28 31 15 28 15 33
1 55 -9 13 -29 30 -45 38 -16 9 -31 24 -33 34 -7 25 -58 39 -73 19 -12 -17
-71 -32 -78 -20 -8 14 12 53 27 53 7 0 17 7 20 16 3 9 13 14 21 10 8 -3 21 1
29 9 23 23 36 18 43 -16 5 -29 8 -31 39 -26 19 3 36 2 39 -3 3 -6 23 2 44 15
21 14 45 23 53 20 21 -8 33 12 17 31 -6 8 -9 17 -5 21 11 11 59 12 78 2 15 -8
24 -5 43 13 14 13 25 31 25 41 0 14 5 17 20 12 29 -9 25 8 -14 53 -20 25 -37
37 -42 32 -16 -16 -74 26 -74 52 0 25 20 64 20 40 0 -9 12 -4 33 12 17 14 34
26 37 26 4 0 4 -15 2 -34z m-1082 4 c0 -5 -4 -10 -10 -10 -5 0 -10 5 -10 10 0
6 5 10 10 10 6 0 10 -4 10 -10z m2357 -46 c3 -8 12 -13 20 -9 11 3 13 1 10
-10 -4 -8 -2 -17 3 -20 6 -4 10 -12 10 -18 0 -7 -16 5 -35 25 -24 26 -40 35
-54 31 -12 -3 -21 -1 -21 6 0 17 60 13 67 -5z m173 -24 c0 -5 -4 -10 -10 -10
-5 0 -10 5 -10 10 0 6 5 10 10 10 6 0 10 -4 10 -10z m-80 -60 c0 -5 -7 -10
-15 -10 -8 0 -15 5 -15 10 0 6 7 10 15 10 8 0 15 -4 15 -10z m-1920 -89 c27
-21 20 -42 -8 -25 -11 8 -28 8 -51 2 -29 -8 -37 -7 -48 8 -22 30 -15 37 27 30
35 -5 39 -4 33 11 -6 14 -4 15 8 5 8 -7 25 -21 39 -31z m95 -12 c12 -19 -5
-23 -22 -6 -16 16 -16 17 -1 17 9 0 20 -5 23 -11z m-166 -71 c10 -26 -4 -37
-22 -19 -16 16 -52 14 -67 -3 -14 -18 -41 -9 -38 13 3 19 29 29 81 30 30 1 39
-3 46 -21z m281 -118 c13 -11 27 -20 32 -20 4 0 8 -6 8 -14 0 -18 -80 -10 -95
9 -7 8 -22 11 -40 8 l-30 -6 19 22 c24 27 75 28 106 1z m1945 -100 c3 -5 1
-10 -4 -10 -6 0 -11 5 -11 10 0 6 2 10 4 10 3 0 8 -4 11 -10z m552 -92 c-3 -8
-6 -5 -6 6 -1 11 2 17 5 13 3 -3 4 -12 1 -19z m37 -50 c-10 -16 -22 -7 -17 13
4 15 8 17 14 8 4 -7 5 -17 3 -21z m-164 -31 c0 -2 -11 -2 -25 1 -27 5 -33 18
-13 24 11 4 38 -14 38 -25z m-3120 -1 c0 -22 -16 -28 -29 -12 -9 11 -9 15 1
19 22 9 28 8 28 -7z m-280 -148 c0 -11 -22 -10 -39 1 -10 7 -7 9 12 8 15 -1
27 -5 27 -9z m547 -25 c-9 -9 -19 -14 -23 -11 -10 10 6 28 24 28 15 0 15 -1
-1 -17z m-482 -7 c12 -11 11 -17 -8 -34 -12 -11 -36 -22 -54 -24 -28 -4 -32
-2 -30 16 2 21 41 54 65 55 7 1 20 -5 27 -13z m3775 -16 c0 -5 -2 -10 -4 -10
-3 0 -8 5 -11 10 -3 6 -1 10 4 10 6 0 11 -4 11 -10z m-3643 -34 c-9 -22 19
-27 57 -11 20 8 45 15 56 15 18 0 19 -3 10 -21 -7 -11 -9 -26 -7 -33 14 -35
-24 -45 -105 -27 -27 6 -55 8 -63 5 -15 -6 -20 9 -15 50 1 14 -3 17 -15 13
-10 -4 -14 -3 -10 3 4 6 21 8 41 4 22 -4 34 -2 34 5 0 6 5 11 11 11 6 0 9 -6
6 -14z m1594 -7 c11 -5 17 -15 13 -20 -3 -6 2 -16 12 -23 30 -23 9 -34 -44
-23 -44 9 -51 8 -70 -11 -16 -16 -36 -23 -74 -24 -29 -1 -65 -2 -80 -3 -34 -2
-98 -50 -98 -75 0 -29 -11 -50 -26 -50 -8 0 -14 -4 -14 -10 0 -5 -9 -10 -20
-10 -27 0 -26 35 2 54 13 9 22 28 24 48 7 70 9 83 17 96 5 6 13 12 19 12 6 0
6 -6 -2 -15 -7 -9 -10 -18 -7 -21 8 -9 27 5 27 20 0 8 17 16 39 20 22 3 41 12
44 18 3 10 7 10 19 1 10 -9 29 -10 69 -4 30 5 57 7 61 5 4 -3 20 2 35 10 34
19 30 18 54 5z m-1413 -41 c-3 -7 -11 -13 -18 -13 -7 0 -15 6 -17 13 -3 7 4
12 17 12 13 0 20 -5 18 -12z m-408 -18 c0 -5 -2 -10 -4 -10 -3 0 -8 5 -11 10
-3 6 -1 10 4 10 6 0 11 -4 11 -10z m-37 -86 c3 -3 1 -18 -4 -34 -11 -30 -54
-49 -72 -31 -12 12 8 41 30 41 7 0 16 7 19 15 6 16 17 19 27 9z m101 -58 c-26
-26 -42 -35 -56 -30 -12 3 -17 11 -14 21 3 8 6 23 6 33 0 15 9 19 43 22 23 2
46 0 50 -3 4 -3 -9 -23 -29 -43z m1739 -41 c-7 -34 -26 -47 -53 -37 -20 7 -21
9 -5 22 10 8 27 20 39 26 11 7 22 12 22 13 1 1 -1 -10 -3 -24z m1884 -247 c-3
-8 -6 -5 -6 6 -1 11 2 17 5 13 3 -3 4 -12 1 -19z m-16 -49 c-5 -13 -10 -19
-10 -12 -1 15 10 45 15 40 3 -2 0 -15 -5 -28z m-1173 -184 c-3 -3 -9 2 -12 12
-6 14 -5 15 5 6 7 -7 10 -15 7 -18z"/>
<path d="M6146 2715 c-9 -26 -7 -32 5 -12 6 10 9 21 6 23 -2 3 -7 -2 -11 -11z"/>
<path d="M5977 2494 c-4 -4 -7 -14 -7 -23 0 -11 3 -12 11 -4 6 6 10 16 7 23
-2 6 -7 8 -11 4z"/>
<path d="M5905 2471 c6 -21 -8 -30 -20 -11 -9 14 -35 0 -35 -19 0 -26 20 -40
50 -34 21 4 31 0 44 -18 14 -21 19 -22 46 -12 17 7 32 7 36 2 3 -5 18 -9 33
-9 20 0 34 -8 45 -25 19 -28 38 -32 56 -10 18 22 4 65 -21 65 -12 0 -23 8 -26
20 -4 15 -14 20 -37 20 -18 0 -37 5 -44 12 -9 9 -12 6 -12 -15 0 -31 -5 -33
-26 -13 -7 8 -22 12 -33 9 -23 -6 -39 16 -20 28 16 9 12 14 -19 24 -21 6 -23
4 -17 -14z"/>
<path d="M6197 2253 c-10 -3 -16 -10 -14 -16 5 -17 52 -15 52 2 0 16 -12 21
-38 14z"/>
<path d="M7601 3914 c0 -11 3 -14 6 -6 3 7 2 16 -1 19 -3 4 -6 -2 -5 -13z"/>
<path d="M705 3731 c-3 -5 -2 -12 3 -15 5 -3 9 1 9 9 0 17 -3 19 -12 6z"/>
<path d="M966 3732 c-8 -14 11 -35 25 -27 9 6 10 3 5 -11 -5 -14 -4 -16 4 -7
9 8 9 16 1 30 -6 10 -11 13 -11 5 0 -7 -5 -10 -10 -7 -6 4 -8 11 -5 16 4 5 4
9 1 9 -3 0 -7 -4 -10 -8z"/>
<path d="M894 3686 c-3 -8 -14 -13 -24 -11 -16 3 -18 0 -10 -21 10 -26 -1 -57
-30 -81 -9 -7 -10 -13 -4 -13 6 0 14 -13 18 -30 6 -34 17 -37 41 -14 9 9 19
14 22 10 4 -3 1 -12 -5 -18 -14 -14 -16 -42 -3 -33 5 3 16 -4 24 -15 14 -19
14 -18 12 17 -1 21 -8 48 -15 60 -10 15 -11 25 -3 35 6 7 10 25 9 41 -1 16 3
27 11 27 17 0 16 15 -1 29 -11 9 -15 9 -20 -1 -3 -7 -4 -3 -2 10 5 24 -11 31
-20 8z m-23 -133 c-3 -42 -5 -45 -14 -25 -7 15 -7 30 1 47 6 14 13 25 14 25 2
0 1 -21 -1 -47z"/>
<path d="M930 3692 c0 -10 22 -32 32 -32 11 0 6 23 -7 32 -13 10 -25 10 -25 0z"/>
<path d="M841 3644 c0 -11 3 -14 6 -6 3 7 2 16 -1 19 -3 4 -6 -2 -5 -13z"/>
<path d="M966 3643 c-10 -10 -7 -25 4 -18 6 3 7 -1 4 -9 -3 -9 -1 -16 5 -16 6
0 11 9 11 19 0 21 -13 34 -24 24z"/>
<path d="M750 3620 c0 -5 5 -10 10 -10 6 0 10 5 10 10 0 6 -4 10 -10 10 -5 0
-10 -4 -10 -10z"/>
<path d="M725 3588 c5 -12 2 -18 -8 -18 -9 0 -19 -4 -22 -10 -3 -5 3 -10 15
-10 25 0 38 27 21 43 -9 9 -11 8 -6 -5z"/>
<path d="M965 3582 c-5 -4 -11 -27 -11 -52 l-2 -45 14 45 c15 48 15 64 -1 52z"/>
<path d="M925 3550 c-3 -5 -1 -10 4 -10 6 0 11 5 11 10 0 6 -2 10 -4 10 -3 0
-8 -4 -11 -10z"/>
<path d="M731 3536 c-7 -9 -24 -16 -37 -16 -18 0 -29 -11 -44 -41 -12 -23 -19
-47 -16 -55 7 -19 76 -18 104 2 12 8 27 12 35 7 15 -9 41 -14 33 -6 -3 4 -1
12 5 20 9 9 8 13 0 13 -6 0 -11 6 -11 13 0 6 -13 27 -28 45 -25 30 -29 32 -41
18z m23 -14 c3 -5 -1 -9 -9 -9 -8 0 -12 4 -9 9 3 4 7 8 9 8 2 0 6 -4 9 -8z"/>
<path d="M6307 3520 c-3 -13 1 -16 19 -12 16 3 26 -1 30 -12 3 -9 10 -13 15
-10 9 5 13 -9 10 -33 -1 -7 3 -13 10 -13 18 0 1 52 -24 75 -28 25 -54 28 -60
5z"/>
<path d="M6270 3475 c0 -16 16 -20 24 -6 3 5 -1 11 -9 15 -9 3 -15 0 -15 -9z"/>
<path d="M9540 3411 c0 -10 8 -21 18 -25 9 -3 23 -9 30 -12 8 -4 12 3 12 19 0
17 -7 27 -22 31 -34 9 -38 8 -38 -13z"/>
<path d="M9618 3413 c6 -2 18 -2 25 0 6 3 1 5 -13 5 -14 0 -19 -2 -12 -5z"/>
<path d="M654 3385 c-15 -11 -16 -15 -5 -29 7 -9 28 -16 45 -16 l31 1 -25 15
c-24 14 -24 15 -2 11 29 -7 28 7 -2 21 -18 8 -28 7 -42 -3z"/>
<path d="M9380 3390 c0 -5 6 -10 14 -10 8 0 16 -7 20 -15 7 -20 46 -20 46 0 0
16 -5 19 -52 29 -16 4 -28 2 -28 -4z"/>
<path d="M790 3381 c-37 -10 -36 -35 2 -59 18 -12 41 -27 51 -34 14 -11 19
-10 28 2 8 12 9 10 4 -7 -3 -12 -1 -24 4 -27 6 -4 13 10 17 31 9 46 -12 88
-44 87 -12 0 -22 3 -22 8 0 9 -4 9 -40 -1z"/>
<path d="M604 3299 c0 -18 5 -20 30 -15 35 7 54 29 29 34 -8 2 -19 -2 -24 -10
-6 -10 -9 -10 -9 0 0 6 -6 12 -13 12 -7 0 -13 -9 -13 -21z"/>
<path d="M714 3294 c9 -8 14 -20 10 -25 -3 -6 -1 -16 6 -24 8 -10 8 -19 0 -34
-13 -26 -13 -26 36 -1 35 17 36 19 14 20 -14 1 -19 4 -12 7 7 3 31 -2 54 -11
l40 -17 -7 28 c-3 15 -7 28 -8 29 -1 0 -13 8 -27 17 -33 23 -48 21 -52 -5 -2
-12 -10 -24 -18 -26 -12 -4 -13 -3 -2 10 10 13 8 18 -12 32 -32 20 -42 21 -22
0z"/>
<path d="M8935 3290 c3 -5 15 -10 26 -10 10 0 19 5 19 10 0 6 -12 10 -26 10
-14 0 -23 -4 -19 -10z"/>
<path d="M9368 3273 c-18 -5 -34 -40 -23 -51 9 -9 125 -6 133 3 4 4 2 10 -5
12 -6 2 -21 13 -34 24 -22 19 -37 21 -71 12z"/>
<path d="M644 3255 c5 -15 4 -16 -9 -5 -9 8 -15 8 -15 2 0 -17 16 -23 41 -14
l23 9 -23 13 c-21 11 -23 10 -17 -5z"/>
<path d="M750 3160 c0 -15 -7 -20 -24 -20 -14 0 -28 5 -31 10 -12 20 -25 9
-25 -21 0 -23 -5 -32 -20 -36 -19 -5 -20 -7 -4 -24 9 -10 13 -22 10 -28 -4 -5
-1 -13 6 -17 14 -9 58 -12 58 -4 0 3 11 6 25 6 17 1 25 -3 25 -15 0 -9 9 -22
20 -29 18 -11 21 -9 30 13 6 15 10 31 10 37 0 7 6 27 12 46 12 31 11 35 -11
53 -31 26 -64 26 -56 0 3 -11 0 -21 -8 -24 -10 -4 -13 2 -9 21 3 15 9 33 15
40 7 8 5 12 -7 12 -9 0 -16 -8 -16 -20z m80 -57 c0 -15 -2 -16 -10 -3 -8 12
-10 12 -10 1 0 -8 -3 -12 -6 -8 -8 7 4 27 17 27 5 0 9 -8 9 -17z"/>
<path d="M4945 3150 c3 -5 8 -10 11 -10 2 0 4 5 4 10 0 6 -5 10 -11 10 -5 0
-7 -4 -4 -10z"/>
<path d="M12024 2985 c-13 -33 5 -64 40 -71 38 -7 56 0 56 21 0 8 10 21 23 30
19 13 20 17 7 25 -25 16 -120 12 -126 -5z"/>
<path d="M9190 2960 c0 -5 7 -10 16 -10 8 0 12 5 9 10 -3 6 -10 10 -16 10 -5
0 -9 -4 -9 -10z"/>
<path d="M10150 2960 c-12 -8 -9 -10 13 -10 16 0 26 4 22 10 -8 12 -16 12 -35
0z"/>
<path d="M9025 2928 c-24 -11 -54 -17 -76 -14 -35 4 -79 -17 -65 -31 9 -9 81
-5 112 8 14 5 43 10 65 11 41 1 51 16 22 34 -14 8 -28 6 -58 -8z"/>
<path d="M8844 2815 c4 -10 -2 -19 -17 -25 -19 -8 -17 -9 14 -9 24 -1 39 4 43
14 3 8 16 15 30 15 14 0 28 5 31 10 4 6 -7 10 -24 10 -17 0 -31 -5 -31 -10 0
-7 -6 -7 -19 0 -27 14 -34 13 -27 -5z"/>
<path d="M5167 2594 c3 -8 19 -14 35 -14 25 0 28 3 19 14 -6 7 -22 14 -35 14
-17 0 -23 -5 -19 -14z"/>
<path d="M610 2540 c-9 -6 -10 -10 -3 -10 6 0 15 5 18 10 8 12 4 12 -15 0z"/>
<path d="M4945 2539 c-4 -6 -5 -13 -2 -16 7 -7 27 6 27 18 0 12 -17 12 -25 -2z"/>
<path d="M660 2530 c-13 -8 -12 -10 3 -10 14 0 17 -5 12 -22 -5 -18 -4 -20 4
-8 12 17 15 50 4 50 -5 0 -15 -5 -23 -10z"/>
<path d="M4725 2379 c-10 -15 3 -25 16 -12 7 7 7 13 1 17 -6 3 -14 1 -17 -5z"/>
<path d="M11754 2266 c-8 -22 3 -35 26 -29 12 3 20 12 18 22 -4 21 -36 27 -44
7z"/>
<path d="M11491 2138 c-33 -16 -50 -35 -56 -61 -1 -7 -6 -20 -10 -31 -8 -18 4
-50 18 -47 4 0 19 1 33 1 23 0 26 3 22 25 -4 16 3 36 18 57 24 32 31 63 17 71
-5 2 -23 -5 -42 -15z"/>
<path d="M11687 2089 c-3 -13 0 -22 10 -26 17 -7 34 14 26 34 -8 20 -30 16
-36 -8z"/>
<path d="M10288 1215 c-5 -25 -4 -25 10 -11 12 11 13 19 5 27 -7 7 -12 3 -15
-16z"/>
<path d="M11517 245 c7 -32 36 -34 31 -3 -2 13 -10 24 -19 26 -13 2 -15 -3
-12 -23z"/>
<path d="M8387 203 c-4 -3 -7 -13 -7 -22 0 -14 2 -14 10 -1 8 13 10 12 10 -4
0 -15 3 -17 11 -9 7 7 9 19 6 27 -7 17 -19 21 -30 9z"/>
<path d="M11490 200 c0 -5 5 -10 10 -10 6 0 10 5 10 10 0 6 -4 10 -10 10 -5 0
-10 -4 -10 -10z"/>
<path d="M8470 165 c0 -8 9 -15 20 -15 24 0 27 15 4 24 -22 9 -24 8 -24 -9z"/>
<path d="M8360 112 c0 -10 8 -28 17 -42 9 -13 18 -32 18 -42 1 -10 4 -20 7
-23 3 -3 44 -5 92 -3 l86 3 -35 38 c-19 21 -35 43 -35 48 0 5 -10 13 -22 18
-27 10 -38 -2 -38 -42 0 -35 -25 -31 -26 4 -1 43 -4 48 -19 43 -8 -4 -15 -1
-15 5 0 6 -7 11 -15 11 -8 0 -15 -8 -15 -18z"/>
</g>
</svg>
